<svg width="18" height="18" viewBox="0 0 18 18" fill="none" xmlns="http://www.w3.org/2000/svg">
<path d="M9.00331 2.27633C10.029 1.35814 11.3675 0.867689 12.7436 0.905756C14.1197 0.943824 15.429 1.50752 16.4023 2.48101C17.3749 3.45341 17.9386 4.76099 17.978 6.13571C18.0174 7.51043 17.5295 8.84814 16.6142 9.87464L9.00152 17.4981L1.39064 9.87464C0.474301 8.84761 -0.0141068 7.50875 0.0256919 6.13292C0.0654907 4.7571 0.630476 3.44871 1.60466 2.47637C2.57884 1.50403 3.88829 0.941514 5.26419 0.904313C6.64008 0.867113 7.97802 1.35805 9.00331 2.27633ZM15.1312 3.74949C14.4826 3.10145 13.6107 2.72616 12.6942 2.70062C11.7778 2.67508 10.8863 3.00122 10.2027 3.61214L9.00421 4.68761L7.80486 3.61304C7.12083 3.00139 6.22855 2.67489 5.31131 2.7006C4.39406 2.72631 3.52147 3.10228 2.87278 3.75128C2.23024 4.39379 1.85518 5.25599 1.82319 6.16409C1.79121 7.07219 2.10468 7.95864 2.70042 8.64476L9.00242 14.9566L15.3044 8.64566C15.9008 7.95927 16.2146 7.07217 16.1825 6.16344C16.1503 5.2547 15.7746 4.39201 15.1312 3.74949Z" fill="black"/>
</svg>
